0
SECTION
2
HEADER
9
$INSUNITS
70
4
9
$ACADVER
1
AC1014
9
$HANDSEED
5
FFFF
0
ENDSEC
0
SECTION
2
TABLES
0
TABLE
2
VPORT
5
8
100
AcDbSymbolTable
0
ENDTAB
0
TABLE
2
LTYPE
5
5
100
AcDbSymbolTable
0
LTYPE
5
14
100
AcDbSymbolTableRecord
100
AcDbLinetypeTableRecord
2
BYBLOCK
70
0
0
LTYPE
5
15
100
AcDbSymbolTableRecord
100
AcDbLinetypeTableRecord
2
BYLAYER
70
0
0
ENDTAB
0
TABLE
2
LAYER
5
2
100
AcDbSymbolTable
70
2
0
LAYER
5
50
100
AcDbSymbolTableRecord
100
AcDbLayerTableRecord
2
0
70
0
6
CONTINUOUS
0
ENDTAB
0
TABLE
2
STYLE
5
3
100
AcDbSymbolTable
70
1
0
STYLE
5
11
100
AcDbSymbolTableRecord
100
AcDbTextStyleTableRecord
2
STANDARD
70
0
0
ENDTAB
0
TABLE
2
VIEW
5
6
100
AcDbSymbolTable
70
0
0
ENDTAB
0
TABLE
2
UCS
5
7
100
AcDbSymbolTable
70
0
0
ENDTAB
0
TABLE
2
APPID
5
9
100
AcDbSymbolTable
70
2
0
APPID
5
12
100
AcDbSymbolTableRecord
100
AcDbRegAppTableRecord
2
ACAD
70
0
0
ENDTAB
0
TABLE
2
DIMSTYLE
5
A
100
AcDbSymbolTable
70
1
0
ENDTAB
0
TABLE
2
BLOCK_RECORD
5
1
100
AcDbSymbolTable
70
1
0
BLOCK_RECORD
5
1F
100
AcDbSymbolTableRecord
100
AcDbBlockTableRecord
2
*MODEL_SPACE
0
BLOCK_RECORD
5
1B
100
AcDbSymbolTableRecord
100
AcDbBlockTableRecord
2
*PAPER_SPACE
0
ENDTAB
0
ENDSEC
0
SECTION
2
BLOCKS
0
BLOCK
5
20
100
AcDbEntity
100
AcDbBlockBegin
2
*MODEL_SPACE
0
ENDBLK
5
21
100
AcDbEntity
100
AcDbBlockEnd
0
BLOCK
5
1C
100
AcDbEntity
100
AcDbBlockBegin
2
*PAPER_SPACE
0
ENDBLK
5
1D
100
AcDbEntity
100
AcDbBlockEnd
0
ENDSEC
0
SECTION
2
ENTITIES
0
LWPOLYLINE
5
100
100
AcDbEntity
8
0
100
AcDbPolyline
90
8
70
1
43
0.0
10
-230.94688311192698
20
-5.9573014351979481
10
-230.94688311192698
20
7.0426985648020057
42
-0.41421356237308593
10
-230.44688311192692
20
7.5426985648019773
10
-217.44688311192698
20
7.5426985648020377
42
-0.41421356237308854
10
-216.94688311192698
20
7.0426985648020057
10
-216.94688311192698
20
-5.9573014351979481
42
-0.41421356237304169
10
-217.44688311192698
20
-6.4573014351979552
10
-230.44688311192692
20
-6.4573014351979143
42
-0.41421356237313339
0
LWPOLYLINE
5
101
100
AcDbEntity
8
0
100
AcDbPolyline
90
8
70
1
43
0.0
10
-7.109683111926941
20
13.092698564802063
10
-7.1096831119269446
20
26.092698564801999
42
-0.41421356237303453
10
-6.6096831119269162
20
26.592698564801989
10
6.3903168880730732
20
26.592698564802042
42
-0.41421356237311646
10
6.8903168880730448
20
26.092698564801999
10
6.8903168880730448
20
13.092698564802063
42
-0.41421356237305601
10
6.3903168880730732
20
12.592698564802056
10
-6.6096831119269162
20
12.592698564802054
42
-0.41421356237314838
0
LWPOLYLINE
5
102
100
AcDbEntity
8
0
100
AcDbPolyline
90
8
70
1
43
0.0
10
-193.64068311192696
20
-5.9573014351979481
10
-193.64068311192696
20
7.0426985648020057
42
-0.41421356237297796
10
-193.14068311192699
20
7.5426985648019773
10
-180.14068311192693
20
7.5426985648020199
42
-0.4142135623730781
10
-179.64068311192705
20
7.0426985648020057
10
-179.64068311192699
20
-5.9573014351979481
42
-0.41421356237304169
10
-180.14068311192693
20
-6.4573014351979552
10
-193.14068311192699
20
-6.4573014351979321
42
-0.4142135623731022
0
LWPOLYLINE
5
103
100
AcDbEntity
8
0
100
AcDbPolyline
90
8
70
1
43
0.0
10
-174.98758311192694
20
-5.9573014351979481
10
-174.98758311192694
20
7.0426985648020057
42
-0.41421356237297796
10
-174.48758311192699
20
7.5426985648019773
10
-161.48758311192694
20
7.5426985648020377
42
-0.41421356237308854
10
-160.98758311192697
20
7.0426985648020057
10
-160.98758311192699
20
-5.9573014351979481
42
-0.41421356237308854
10
-161.48758311192694
20
-6.4573014351978841
10
-174.48758311192699
20
-6.4573014351979321
42
-0.4142135623731022
0
LWPOLYLINE
5
104
100
AcDbEntity
8
0
100
AcDbPolyline
90
8
70
1
43
0.0
10
-212.29378311192698
20
-5.9573014351979481
10
-212.29378311192698
20
7.0426985648020057
42
-0.41421356237308593
10
-211.79378311192693
20
7.5426985648019773
10
-198.79378311192696
20
7.5426985648020377
42
-0.41421356237308854
10
-198.29378311192698
20
7.0426985648020057
10
-198.29378311192698
20
-5.9573014351979481
42
-0.41421356237304169
10
-198.79378311192696
20
-6.4573014351979552
10
-211.79378311192693
20
-6.4573014351979143
42
-0.41421356237313339
0
LWPOLYLINE
5
105
100
AcDbEntity
8
0
100
AcDbPolyline
90
8
70
1
43
0.0
10
-183.68786511192695
20
45.642698564801947
42
0.41421356237306384
10
-184.18786511192695
20
45.142698564801975
10
-184.18786511192701
20
32.14269856480216
42
0.41421356237313145
10
-183.68786511192695
20
31.642698564802192
10
-170.68786511192712
20
31.642698564802156
42
0.41421356237304302
10
-170.18786511192715
20
32.14269856480216
10
-170.18786511192715
20
45.142698564801975
42
0.41421356237316787
10
-170.68786511192712
20
45.642698564802018
0
LWPOLYLINE
5
106
100
AcDbEntity
8
0
100
AcDbPolyline
90
8
70
1
43
0.0
10
-202.30486511192694
20
45.642698564801947
42
0.41421356237306384
10
-202.80486511192694
20
45.142698564801975
10
-202.80486511192697
20
32.14269856480216
42
0.41421356237313145
10
-202.30486511192694
20
31.642698564802192
10
-189.30486511192711
20
31.642698564802156
42
0.41421356237304302
10
-188.80486511192714
20
32.14269856480216
10
-188.80486511192714
20
45.142698564801975
42
0.41421356237316787
10
-189.30486511192711
20
45.642698564802018
0
LWPOLYLINE
5
107
100
AcDbEntity
8
0
100
AcDbPolyline
90
8
70
1
43
0.0
10
-63.068983111926954
20
13.092698564802063
10
-63.06898311192694
20
26.092698564801999
42
-0.41421356237303258
10
-62.568983111926919
20
26.592698564801989
10
-49.568983111926926
20
26.592698564802042
42
-0.41421356237311585
10
-49.068983111926954
20
26.092698564801999
10
-49.068983111926968
20
13.092698564802063
42
-0.41421356237304563
10
-49.568983111926926
20
12.592698564802056
10
-62.568983111926926
20
12.592698564802049
42
-0.41421356237314055
0
LWPOLYLINE
5
108
100
AcDbEntity
8
0
100
AcDbPolyline
90
8
70
1
43
0.0
10
-44.415883111926945
20
13.092698564802063
10
-44.415883111926945
20
26.092698564801999
42
-0.4142135623730222
10
-43.915883111926917
20
26.592698564801989
10
-30.915883111926927
20
26.592698564802042
42
-0.41421356237311585
10
-30.415883111926956
20
26.092698564801999
10
-30.415883111926956
20
13.092698564802063
42
-0.41421356237305729
10
-30.915883111926927
20
12.592698564802056
10
-43.915883111926917
20
12.592698564802058
42
-0.41421356237314577
0
LWPOLYLINE
5
109
100
AcDbEntity
8
0
100
AcDbPolyline
90
8
70
1
43
0.0
10
-137.68138311192695
20
13.092698564802063
10
-137.68138311192695
20
26.092698564801999
42
-0.41421356237303519
10
-137.18138311192692
20
26.592698564801989
10
-124.18138311192692
20
26.592698564802024
42
-0.41421356237312623
10
-123.68138311192695
20
26.092698564801999
10
-123.68138311192695
20
13.092698564802063
42
-0.41421356237307033
10
-124.18138311192692
20
12.592698564802056
10
-137.18138311192692
20
12.592698564802046
42
-0.41421356237313273
0
LWPOLYLINE
5
110
100
AcDbEntity
8
0
100
AcDbPolyline
90
8
70
1
43
0.0
10
-212.29378311192698
20
13.092698564802063
10
-212.29378311192698
20
26.092698564801999
42
-0.41421356237308721
10
-211.79378311192693
20
26.592698564801971
10
-198.79378311192696
20
26.592698564802049
42
-0.41421356237314189
10
-198.29378311192698
20
26.092698564801999
10
-198.29378311192698
20
13.092698564802063
42
-0.41421356237303653
10
-198.79378311192687
20
12.592698564802038
10
-211.79378311192693
20
12.592698564802056
42
-0.41421356237315748
0
LWPOLYLINE
5
111
100
AcDbEntity
8
0
100
AcDbPolyline
90
8
70
1
43
0.0
10
-119.02828311192694
20
13.092698564802063
10
-119.02828311192694
20
26.092698564801999
42
-0.41421356237305079
10
-118.52828311192692
20
26.592698564801989
10
-105.52828311192692
20
26.592698564802042
42
-0.41421356237311585
10
-105.02828311192695
20
26.092698564801999
10
-105.02828311192695
20
13.092698564802063
42
-0.41421356237307033
10
-105.52828311192692
20
12.592698564802056
10
-118.52828311192692
20
12.592698564802054
42
-0.41421356237314838
0
LWPOLYLINE
5
112
100
AcDbEntity
8
0
100
AcDbPolyline
90
8
70
1
43
0.0
10
-174.98758311192694
20
13.092698564802063
10
-174.98758311192694
20
26.092698564801999
42
-0.41421356237298057
10
-174.48758311192699
20
26.592698564801971
10
-161.48758311192694
20
26.592698564802049
42
-0.41421356237314189
10
-160.98758311192697
20
26.092698564801999
10
-160.98758311192697
20
13.092698564802063
42
-0.41421356237309243
10
-161.48758311192694
20
12.592698564802109
10
-174.48758311192699
20
12.592698564802042
42
-0.41421356237312362
0
LWPOLYLINE
5
113
100
AcDbEntity
8
0
100
AcDbPolyline
90
8
70
1
43
0.0
10
-156.33448311192697
20
13.092698564802063
10
-156.33448311192697
20
26.092698564801999
42
-0.41421356237302998
10
-155.83448311192691
20
26.592698564802042
10
-142.83448311192694
20
26.592698564802024
42
-0.41421356237312623
10
-142.33448311192694
20
26.092698564801999
10
-142.33448311192694
20
13.092698564802063
42
-0.41421356237307033
10
-142.83448311192694
20
12.592698564802056
10
-155.83448311192689
20
12.592698564802047
42
-0.41421356237316265
0
LWPOLYLINE
5
114
100
AcDbEntity
8
0
100
AcDbPolyline
90
8
70
1
43
0.0
10
-193.64068311192696
20
13.092698564802063
10
-193.64068311192696
20
26.092698564801999
42
-0.41421356237298057
10
-193.14068311192699
20
26.592698564801971
10
-180.14068311192693
20
26.592698564802056
42
-0.41421356237310281
10
-179.64068311192705
20
26.092698564801999
10
-179.64068311192699
20
13.092698564802063
42
-0.41421356237303653
10
-180.14068311192688
20
12.592698564802038
10
-193.14068311192699
20
12.592698564802042
42
-0.41421356237312362
0
LWPOLYLINE
5
115
100
AcDbEntity
8
0
100
AcDbPolyline
90
8
70
1
43
0.0
10
-53.723319111927083
20
45.142699564801902
42
0.41421356237312101
10
-54.223319111927033
20
45.64269956480193
10
-67.223319111926941
20
45.642699564801887
42
0.41421356237301177
10
-67.723319111926955
20
45.142699564801902
10
-67.723319111926941
20
32.142699564802029
42
0.41421356237314444
10
-67.223319111926941
20
31.642699564802061
10
-54.223319111927033
20
31.642699564802061
42
0.41421356237303258
10
-53.723319111927083
20
32.142699564802029
0
LWPOLYLINE
5
116
100
AcDbEntity
8
0
100
AcDbPolyline
90
8
70
1
43
0.0
10
-146.45386511192694
20
45.642698564801961
42
0.41421356237304818
10
-146.95386511192697
20
45.142698564801975
10
-146.95386511192694
20
32.14269856480216
42
0.41421356237313406
10
-146.45386511192694
20
31.642698564802192
10
-133.45386511192709
20
31.642698564802192
42
0.41421356237306123
10
-132.95386511192714
20
32.14269856480216
10
-132.95386511192714
20
45.142698564801975
42
0.41421356237312623
10
-133.45386511192709
20
45.642698564802018
0
LWPOLYLINE
5
117
100
AcDbEntity
8
0
100
AcDbPolyline
90
8
70
1
43
0.0
10
-212.18468311192723
20
45.142692564801834
10
-212.18468311192726
20
32.14269256480204
42
-0.41421356237308721
10
-212.6846831119272
20
31.642692564802104
10
-225.68468311192703
20
31.642692564802086
42
-0.41421356237312623
10
-226.18468311192709
20
32.14269256480204
10
-226.18468311192709
20
45.142692564801834
42
-0.41421356237306384
10
-225.68468311192703
20
45.642692564801806
10
-212.6846831119272
20
45.642692564801862
42
-0.41421356237316787
0
LWPOLYLINE
5
118
100
AcDbEntity
8
0
100
AcDbPolyline
90
8
70
1
43
0.0
10
-44.415883111926945
20
32.14269856480206
10
-44.415883111926945
20
45.142698564802011
42
-0.41421356237301177
10
-43.915883111926917
20
45.642698564802004
10
-30.915883111926927
20
45.642698564802053
42
-0.41421356237311585
10
-30.415883111926938
20
45.142698564802011
10
-30.415883111926952
20
32.14269856480206
42
-0.41421356237305079
10
-30.915883111926927
20
31.64269856480205
10
-43.915883111926917
20
31.642698564802071
42
-0.41421356237314444
0
LWPOLYLINE
5
119
100
AcDbEntity
8
0
100
AcDbPolyline
90
8
70
1
43
0.0
10
-77.10286511192713
20
45.142698564801975
10
-77.10286511192713
20
32.14269856480216
42
-0.41421356237303258
10
-77.602865111927088
20
31.642698564802192
10
-90.602865111926931
20
31.642698564802195
42
-0.41421356237313406
10
-91.102865111926945
20
32.14269856480216
10
-91.102865111926974
20
45.142698564801975
42
-0.41421356237304818
10
-90.602865111926931
20
45.642698564801961
10
-77.602865111927088
20
45.642698564802018
42
-0.41421356237310542
0
LWPOLYLINE
5
120
100
AcDbEntity
8
0
100
AcDbPolyline
90
8
70
1
43
0.0
10
-127.83686511192693
20
45.642698564801961
42
0.41421356237303258
10
-128.33686511192695
20
45.142698564801975
10
-128.33686511192693
20
32.14269856480216
42
0.41421356237311324
10
-127.83686511192693
20
31.642698564802192
10
-114.83686511192708
20
31.642698564802192
42
0.41421356237304563
10
-114.33686511192712
20
32.14269856480216
10
-114.33686511192712
20
45.142698564801975
42
0.41421356237314189
10
-114.83686511192708
20
45.642698564802018
0
LWPOLYLINE
5
121
100
AcDbEntity
8
0
100
AcDbPolyline
90
8
70
1
43
0.0
10
-230.94688311192698
20
13.092698564802063
10
-230.94688311192698
20
26.092698564801999
42
-0.41421356237308721
10
-230.44688311192692
20
26.592698564801971
10
-217.44688311192698
20
26.592698564802049
42
-0.41421356237314189
10
-216.94688311192698
20
26.092698564801999
10
-216.94688311192698
20
13.092698564802063
42
-0.41421356237303653
10
-217.44688311192689
20
12.592698564802038
10
-230.44688311192692
20
12.592698564802056
42
-0.41421356237315748
0
LWPOLYLINE
5
122
100
AcDbEntity
8
0
100
AcDbPolyline
90
8
70
1
43
0.0
10
-7.109683111926941
20
32.14269856480206
10
-7.1096831119269366
20
45.142698564802011
42
-0.41421356237302998
10
-6.6096831119269162
20
45.642698564802004
10
6.3903168880730732
20
45.642698564802046
42
-0.41421356237310936
10
6.8903168880730625
20
45.142698564802011
10
6.8903168880730465
20
32.14269856480206
42
-0.41421356237304952
10
6.3903168880730732
20
31.64269856480205
10
-6.6096831119269162
20
31.642698564802068
42
-0.41421356237314122
0
LWPOLYLINE
5
123
100
AcDbEntity
8
0
100
AcDbPolyline
90
8
70
1
43
0.0
10
-25.762783111926943
20
13.092698564802063
10
-25.762783111926947
20
26.092698564801999
42
-0.41421356237303519
10
-25.262783111926915
20
26.592698564801989
10
-12.262783111926927
20
26.592698564802042
42
-0.41421356237311585
10
-11.762783111926955
20
26.092698564801999
10
-11.762783111926955
20
13.092698564802063
42
-0.41421356237305601
10
-12.262783111926927
20
12.592698564802056
10
-25.262783111926915
20
12.592698564802053
42
-0.41421356237314966
0
LWPOLYLINE
5
124
100
AcDbEntity
8
0
100
AcDbPolyline
90
8
70
1
43
0.0
10
-165.07086511192696
20
45.642698564802018
42
0.4142135623730222
10
-165.57086511192699
20
45.142698564801975
10
-165.57086511192699
20
32.14269856480216
42
0.41421356237313145
10
-165.07086511192696
20
31.642698564802192
10
-152.07086511192708
20
31.642698564802156
42
0.41421356237302481
10
-151.57086511192711
20
32.14269856480216
10
-151.57086511192711
20
45.142698564801975
42
0.41421356237311585
10
-152.07086511192708
20
45.642698564802018
0
LWPOLYLINE
5
125
100
AcDbEntity
8
0
100
AcDbPolyline
90
8
70
1
43
0.0
10
-109.21986511192694
20
45.642698564801961
42
0.41421356237303258
10
-109.71986511192696
20
45.142698564801975
10
-109.71986511192695
20
32.14269856480216
42
0.41421356237311324
10
-109.21986511192694
20
31.642698564802192
10
-96.219865111927092
20
31.642698564802192
42
0.41421356237304563
10
-95.719865111927135
20
32.14269856480216
10
-95.719865111927135
20
45.142698564801975
42
0.41421356237314189
10
-96.219865111927092
20
45.642698564802018
0
LWPOLYLINE
5
126
100
AcDbEntity
8
0
100
AcDbPolyline
90
8
70
1
43
0.0
10
-100.37518311192696
20
13.092698564802063
10
-100.37518311192696
20
26.092698564801999
42
-0.41421356237303519
10
-99.87518311192693
20
26.592698564801989
10
-86.87518311192693
20
26.592698564802024
42
-0.41421356237312623
10
-86.375183111926958
20
26.092698564801999
10
-86.375183111926958
20
13.092698564802063
42
-0.41421356237307033
10
-86.87518311192693
20
12.592698564802056
10
-99.87518311192693
20
12.592698564802046
42
-0.41421356237313273
0
LWPOLYLINE
5
127
100
AcDbEntity
8
0
100
AcDbPolyline
90
8
70
1
43
0.0
10
-81.722083111926935
20
13.092698564802063
10
-81.722083111926935
20
26.092698564801999
42
-0.41421356237303519
10
-81.222083111926921
20
26.592698564801989
10
-68.222083111926935
20
26.592698564802042
42
-0.41421356237311585
10
-67.722083111926963
20
26.092698564801999
10
-67.722083111926963
20
13.092698564802063
42
-0.41421356237305079
10
-68.222083111926935
20
12.592698564802056
10
-81.222083111926921
20
12.592698564802046
42
-0.41421356237313273
0
LWPOLYLINE
5
128
100
AcDbEntity
8
0
100
AcDbPolyline
90
8
70
1
43
0.0
10
-25.762783111926943
20
32.14269856480206
10
-25.762783111926943
20
45.142698564802011
42
-0.41421356237303258
10
-25.262783111926915
20
45.642698564802004
10
-12.262783111926927
20
45.642698564802046
42
-0.41421356237311063
10
-11.762783111926938
20
45.142698564802011
10
-11.762783111926954
20
32.14269856480206
42
-0.41421356237304952
10
-12.262783111926927
20
31.64269856480205
10
-25.262783111926915
20
31.642698564802068
42
-0.41421356237314189
0
LWPOLYLINE
5
129
100
AcDbEntity
8
0
100
AcDbPolyline
90
8
70
1
43
0.0
10
-6.6096831119269162
20
7.5426985648019951
10
6.3903168880730732
20
7.5426985648020315
42
-0.41421356237311519
10
6.890316888073027
20
7.0426985648020057
10
6.8903168880730439
20
-5.9573014351979481
42
-0.41421356237304363
10
6.3903168880730732
20
-6.4573014351979374
10
-6.6096831119269162
20
-6.4573014351979197
42
-0.41421356237313794
10
-7.1096831119269233
20
-5.9573014351979481
10
-7.109683111926941
20
7.0426985648020057
42
-0.41421356237303258
0
LWPOLYLINE
5
130
100
AcDbEntity
8
0
100
AcDbPolyline
90
8
70
1
43
0.0
10
-63.068983111926954
20
-5.9573014351979481
10
-63.06898311192694
20
7.0426985648020057
42
-0.41421356237303064
10
-62.568983111926919
20
7.5426985648019951
10
-49.568983111926926
20
7.5426985648020315
42
-0.4142135623731269
10
-49.068983111926975
20
7.0426985648020057
10
-49.068983111926968
20
-5.9573014351979481
42
-0.41421356237304563
10
-49.568983111926926
20
-6.4573014351979374
10
-62.568983111926926
20
-6.4573014351979472
42
-0.41421356237313212
0
LWPOLYLINE
5
131
100
AcDbEntity
8
0
100
AcDbPolyline
90
8
70
1
43
0.0
10
-81.722083111926935
20
-5.9573014351979481
10
-81.722083111926935
20
7.0426985648020057
42
-0.41421356237303392
10
-81.222083111926921
20
7.5426985648019951
10
-68.222083111926935
20
7.5426985648020315
42
-0.41421356237311646
10
-67.722083111926977
20
7.0426985648020057
10
-67.722083111926963
20
-5.9573014351979481
42
-0.41421356237305079
10
-68.222083111926935
20
-6.4573014351979374
10
-81.222083111926921
20
-6.4573014351979507
42
-0.41421356237310281
0
LWPOLYLINE
5
132
100
AcDbEntity
8
0
100
AcDbPolyline
90
8
70
1
43
0.0
10
-100.37518311192696
20
-5.9573014351979481
10
-100.37518311192696
20
7.0426985648020057
42
-0.41421356237303392
10
-99.87518311192693
20
7.5426985648019951
10
-86.87518311192693
20
7.5426985648020253
42
-0.41421356237311258
10
-86.375183111926987
20
7.0426985648020057
10
-86.375183111926958
20
-5.9573014351979481
42
-0.41421356237302609
10
-86.87518311192693
20
-6.4573014351979374
10
-99.87518311192693
20
-6.4573014351979507
42
-0.41421356237310281
0
LWPOLYLINE
5
133
100
AcDbEntity
8
0
100
AcDbPolyline
90
8
70
1
43
0.0
10
-156.33448311192697
20
-5.9573014351979481
10
-156.33448311192697
20
7.0426985648020057
42
-0.41421356237302936
10
-155.83448311192691
20
7.5426985648020484
10
-142.83448311192694
20
7.5426985648020253
42
-0.41421356237311258
10
-142.33448311192697
20
7.0426985648020057
10
-142.33448311192694
20
-5.9573014351979481
42
-0.41421356237302609
10
-142.83448311192694
20
-6.4573014351979374
10
-155.83448311192691
20
-6.4573014351979374
42
-0.41421356237314705
0
LWPOLYLINE
5
134
100
AcDbEntity
8
0
100
AcDbPolyline
90
8
70
1
43
0.0
10
-25.762783111926943
20
-5.9573014351979481
10
-25.762783111926943
20
7.0426985648020057
42
-0.41421356237303258
10
-25.262783111926915
20
7.5426985648019951
10
-12.262783111926927
20
7.5426985648020306
42
-0.41421356237311846
10
-11.762783111926973
20
7.0426985648020057
10
-11.762783111926955
20
-5.9573014351979481
42
-0.41421356237304496
10
-12.262783111926927
20
-6.4573014351979374
10
-25.262783111926915
20
-6.4573014351979383
42
-0.41421356237313728
0
LWPOLYLINE
5
135
100
AcDbEntity
8
0
100
AcDbPolyline
90
8
70
1
43
0.0
10
-44.415883111926945
20
-5.9573014351979481
10
-44.415883111926931
20
7.0426985648020057
42
-0.41421356237301504
10
-43.915883111926917
20
7.5426985648019951
10
-30.915883111926927
20
7.5426985648020324
42
-0.41421356237311191
10
-30.415883111926973
20
7.0426985648020057
10
-30.415883111926956
20
-5.9573014351979481
42
-0.41421356237304818
10
-30.915883111926927
20
-6.4573014351979374
10
-43.915883111926917
20
-6.4573014351979294
42
-0.4142135623731425
0
LWPOLYLINE
5
136
100
AcDbEntity
8
0
100
AcDbPolyline
90
8
70
1
43
0.0
10
-137.68138311192695
20
-5.9573014351979481
10
-137.68138311192695
20
7.0426985648020057
42
-0.41421356237303392
10
-137.18138311192692
20
7.5426985648019951
10
-124.18138311192692
20
7.5426985648020253
42
-0.41421356237311258
10
-123.68138311192696
20
7.0426985648020057
10
-123.68138311192695
20
-5.9573014351979481
42
-0.41421356237302609
10
-124.18138311192692
20
-6.4573014351979374
10
-137.18138311192692
20
-6.4573014351979507
42
-0.41421356237310281
0
LWPOLYLINE
5
137
100
AcDbEntity
8
0
100
AcDbPolyline
90
8
70
1
43
0.0
10
-119.02828311192694
20
-5.9573014351979481
10
-119.02828311192694
20
7.0426985648020057
42
-0.41421356237305018
10
-118.52828311192692
20
7.5426985648019951
10
-105.52828311192692
20
7.5426985648020342
42
-0.41421356237309698
10
-105.02828311192698
20
7.0426985648020057
10
-105.02828311192694
20
-5.9573014351979481
42
-0.41421356237303653
10
-105.52828311192692
20
-6.4573014351979374
10
-118.52828311192692
20
-6.457301435197933
42
-0.41421356237313406
0
LWPOLYLINE
5
138
100
AcDbEntity
8
0
100
AcDbPolyline
90
40
70
1
43
0.0
10
-232.38053338112371
20
66.692698564802001
10
-232.44718311193475
20
66.692698564802001
42
0.41421356237301699
10
-232.94718311193475
20
66.192698564801987
10
-232.94718311193478
20
-7.9573014351979943
42
0.41421356237312623
10
-232.44718311193478
20
-8.4573014351979836
10
-232.38053338112474
20
-8.4573014351980103
42
-0.26794919243115639
10
-230.64848257355592
20
-9.4573014351980689
10
-228.33908149679672
20
-13.45730143519801
10
-223.22080191067693
20
-13.457301435198008
42
-9.9498743710626023
10
-222.72330819212351
20
-13.457301435198008
10
-220.26728472707276
20
-13.457301435198001
10
-217.95788365031376
20
-9.4573014351979214
42
-0.26794919243111071
10
-216.22583284274481
20
-8.4573014351980262
10
-7.8310333811243282
20
-8.4573014351979943
42
-0.26794919243112736
10
-6.0989825735554746
20
-9.4573014351980174
10
-3.7895814967970587
20
-13.457301435198001
10
-1.3333019106769264
20
-13.457301435198
42
-9.9498743710617585
10
-0.83580819212340185
20
-13.457301435198
10
4.2822152729275054
20
-13.457301435197992
10
6.5916163496860065
20
-9.4573014351979996
42
-0.2679491924311288
10
8.3236671572549366
20
-8.4573014351979943
10
8.3903168880652679
20
-8.4573014351980014
42
0.41421356237309048
10
8.8903168880652608
20
-7.9573014351979934
10
8.890316888065275
20
66.192698564801987
42
0.41421356237337986
10
8.3903168880647296
20
66.692698564802029
10
8.3236671572548993
20
66.692698564802001
42
-0.26794919243112048
10
6.5916163496860101
20
67.692698564802043
10
4.2822152729275054
20
71.692698564802029
10
-0.83606431319285301
20
71.692698564802029
42
-9.9498743710742819
10
-1.3335580317457629
20
71.692698564802029
10
-3.7895814967969543
20
71.692698564802029
10
-6.0989825735554462
20
67.692698564802058
42
-0.26794919243113569
10
-7.8310333811243424
20
66.692698564802029
10
-216.22583284274475
20
66.692698564802001
42
-0.26794919243114002
10
-217.95788365031365
20
67.692698564802058
10
-220.26728472707276
20
71.692698564802029
10
-222.72356431319287
20
71.692698564802043
42
-9.949874371074948
10
-223.22105803174571
20
71.692698564802043
10
-228.33908149679672
20
71.692698564802029
10
-230.64848257355567
20
67.692698564802043
42
-0.26794919243100895
0
ARC
5
139
100
AcDbEntity
8
0
100
AcDbCircle
10
-153.09668311192684
20
50.192698564802015
30
0
40
0.50000000000000711
210
0
220
0
230
1
100
AcDbArc
50
180
51
270
0
LINE
5
140
100
AcDbEntity
8
0
100
AcDbLine
10
-113.11543311192693
20
50.692698564802008
30
0
11
-113.11543311192693
21
50.192698564801987
31
0
0
LINE
5
141
100
AcDbEntity
8
0
100
AcDbLine
10
-130.49143311192688
20
64.692698564801958
30
0
11
-134.10343311192688
21
64.692698564801958
31
0
0
ARC
5
142
100
AcDbEntity
8
0
100
AcDbCircle
10
-168.59143311192682
20
64.192698564801972
30
0
40
0.49999999999999689
210
0
220
-0
230
1
100
AcDbArc
50
86.746716999999478
51
90
0
LWPOLYLINE
5
143
100
AcDbEntity
8
0
100
AcDbPolyline
90
16
70
1
43
0.0
10
-94.103433111926975
20
50.192698564802001
42
0.41421356237309503
10
-93.603433111926932
20
49.692698564802015
10
-87.603433111926961
20
49.692698564802015
42
0.41421356237309503
10
-87.103433111926947
20
50.192698564802001
10
-87.103433111926947
20
50.692698564802008
10
-84.097183111926938
20
50.692698564802008
42
0.41421356237309503
10
-83.597183111926938
20
51.192698564802001
10
-83.597183111926938
20
64.192698564801987
42
0.41421356237309503
10
-84.097183111926938
20
64.692698564801972
10
-87.603433111926961
20
64.692698564801972
10
-93.603433111926932
20
64.692698564801972
10
-97.097183111926952
20
64.692698564801972
42
0.41421356237309503
10
-97.597183111926924
20
64.192698564801987
10
-97.597183111926924
20
51.192698564802015
42
0.41421356237309503
10
-97.097183111926952
20
50.692698564802008
10
-94.103433111926932
20
50.692698564802008
0
LINE
5
144
100
AcDbEntity
8
0
100
AcDbLine
10
-170.97268311192681
20
49.692698564801994
30
0
11
-168.59143311192682
21
49.692698564801994
31
0
0
LWPOLYLINE
5
145
100
AcDbEntity
8
0
100
AcDbPolyline
90
16
70
1
43
0.0
10
-187.10343311192679
20
50.192698564802001
10
-187.10343311192679
20
50.692698564802008
10
-184.10968311192678
20
50.692698564802008
42
0.41421356237309503
10
-183.60968311192678
20
51.192698564802001
10
-183.60968311192678
20
64.192698564801972
42
0.41421356237309503
10
-184.10968311192678
20
64.692698564801972
10
-187.60343311192679
20
64.692698564801972
10
-193.60343311192679
20
64.692698564801972
10
-197.10968311192676
20
64.692698564801972
42
0.41421356237309503
10
-197.60968311192673
20
64.192698564801972
10
-197.60968311192673
20
51.192698564802001
42
0.41421356237309503
10
-197.10968311192676
20
50.692698564802008
10
-194.10343311192679
20
50.692698564802008
10
-194.10343311192679
20
50.192698564802001
42
0.41421356237309503
10
-193.60343311192679
20
49.692698564801994
10
-187.60343311192679
20
49.692698564801994
42
0.41421356237309503
0
LINE
5
146
100
AcDbEntity
8
0
100
AcDbLine
10
-130.49143311192688
20
49.692698564801994
30
0
11
-128.11018311192686
21
49.692698564801994
31
0
0
LINE
5
147
100
AcDbEntity
8
0
100
AcDbLine
10
-128.11018311192686
20
64.692698564801958
30
0
11
-130.49143311192688
21
64.692698564801958
31
0
0
LINE
5
148
100
AcDbEntity
8
0
100
AcDbLine
10
-136.49143311192685
20
49.692698564801994
30
0
11
-134.11018311192689
21
49.692698564801994
31
0
0
LINE
5
149
100
AcDbEntity
8
0
100
AcDbLine
10
-155.53468311192685
20
50.692698564802008
30
0
11
-153.59668311192684
21
50.692698564802008
31
0
0
LINE
5
150
100
AcDbEntity
8
0
100
AcDbLine
10
-166.15343311192686
20
64.692698564801987
30
0
11
-168.53468311192677
21
64.692698564801972
31
0
0
LWPOLYLINE
5
151
100
AcDbEntity
8
0
100
AcDbPolyline
90
8
70
1
43
0.0
10
-223.80343311192672
20
51.192698564801979
42
0.41421356237309503
10
-223.30343311192675
20
50.692698564801987
10
-210.30343311192678
20
50.692698564802008
42
0.41421356237309503
10
-209.80343311192672
20
51.192698564802001
10
-209.80343311192672
20
64.192698564801972
42
0.41421356237309503
10
-210.30343311192678
20
64.692698564801972
10
-223.30343311192675
20
64.692698564801958
42
0.41421356237309503
10
-223.80343311192672
20
64.192698564801958
0
LINE
5
152
100
AcDbEntity
8
0
100
AcDbLine
10
-136.49143311192685
20
64.692698564801958
30
0
11
-144.71543311192687
21
64.692698564801972
31
0
0
ARC
5
153
100
AcDbEntity
8
0
100
AcDbCircle
10
-168.53468311192677
20
64.192698564801972
30
0
40
0.50000000000000711
210
0
220
-0
230
1
100
AcDbArc
50
90
51
93.253283000003776
0
ARC
5
154
100
AcDbEntity
8
0
100
AcDbCircle
10
-176.97268311192676
20
50.192698564802001
30
0
40
0.50000000000000711
210
0
220
0
230
1
100
AcDbArc
50
180
51
270
0
LINE
5
155
100
AcDbEntity
8
0
100
AcDbLine
10
-150.71543311192684
20
64.692698564801972
30
0
11
-153.09668311192684
21
64.692698564801972
31
0
0
ARC
5
156
100
AcDbEntity
8
0
100
AcDbCircle
10
-128.11018311192686
20
50.192698564802001
30
0
40
0.50000000000000711
210
0
220
0
230
1
100
AcDbArc
50
-90
51
0
0
LINE
5
157
100
AcDbEntity
8
0
100
AcDbLine
10
-144.71543311192687
20
64.692698564801972
30
0
11
-147.09668311192686
21
64.692698564801972
31
0
0
LINE
5
158
100
AcDbEntity
8
0
100
AcDbLine
10
-147.09668311192684
20
49.692698564802015
30
0
11
-144.71543311192681
21
49.692698564802015
31
0
0
LINE
5
159
100
AcDbEntity
8
0
100
AcDbLine
10
-177.47268311192676
20
64.192698564801972
30
0
11
-177.47268311192676
21
50.192698564802001
31
0
0
LINE
5
160
100
AcDbEntity
8
0
100
AcDbLine
10
-153.59668311192684
20
50.692698564802008
30
0
11
-153.59668311192684
21
50.192698564802015
31
0
0
LINE
5
161
100
AcDbEntity
8
0
100
AcDbLine
10
-144.21543311192687
20
50.192698564802015
30
0
11
-144.21543311192687
21
50.692698564802008
31
0
0
LINE
5
162
100
AcDbEntity
8
0
100
AcDbLine
10
-174.59143311192685
20
49.692698564801994
30
0
11
-170.97268311192681
21
49.692698564801994
31
0
0
LINE
5
163
100
AcDbEntity
8
0
100
AcDbLine
10
-153.09668311192684
20
49.692698564802015
30
0
11
-150.71543311192684
21
49.692698564802015
31
0
0
ARC
5
164
100
AcDbEntity
8
0
100
AcDbCircle
10
-153.09668311192684
20
64.192698564801987
30
0
40
0.49999999999998934
210
0
220
-0
230
1
100
AcDbArc
50
90
51
93.253283000003691
0
LINE
5
165
100
AcDbEntity
8
0
100
AcDbLine
10
-168.09143311192682
20
50.192698564802001
30
0
11
-168.09143311192682
21
50.692698564801987
31
0
0
LINE
5
166
100
AcDbEntity
8
0
100
AcDbLine
10
-168.59143311192682
20
64.692698564801972
30
0
11
-170.97268311192681
21
64.692698564801972
31
0
0
ARC
5
167
100
AcDbEntity
8
0
100
AcDbCircle
10
-176.97268311192676
20
64.192698564801972
30
0
40
0.50000000000000711
210
0
220
-0
230
1
100
AcDbArc
50
90
51
180
0
LINE
5
168
100
AcDbEntity
8
0
100
AcDbLine
10
-147.10343311192685
20
64.692698564801972
30
0
11
-150.71543311192684
21
64.692698564801972
31
0
0
LINE
5
169
100
AcDbEntity
8
0
100
AcDbLine
10
-170.97268311192681
20
64.692698564801972
30
0
11
-174.59143311192685
21
64.692698564801972
31
0
0
ARC
5
170
100
AcDbEntity
8
0
100
AcDbCircle
10
-144.71543311192687
20
50.192698564802015
30
0
40
0.50000000000000711
210
-0
220
0
230
1
100
AcDbArc
50
-89.999999999993491
51
0
0
LINE
5
171
100
AcDbEntity
8
0
100
AcDbLine
10
-174.59143311192685
20
64.692698564801972
30
0
11
-176.97268311192676
21
64.692698564801972
31
0
0
LINE
5
172
100
AcDbEntity
8
0
100
AcDbLine
10
-176.97268311192676
20
49.692698564801994
30
0
11
-174.59143311192685
21
49.692698564801994
31
0
0
LINE
5
173
100
AcDbEntity
8
0
100
AcDbLine
10
-150.71543311192684
20
49.692698564802015
30
0
11
-147.09668311192684
21
49.692698564802015
31
0
0
LINE
5
174
100
AcDbEntity
8
0
100
AcDbLine
10
-168.09143311192682
20
50.692698564801987
30
0
11
-166.15343311192686
21
50.692698564802008
31
0
0
ARC
5
175
100
AcDbEntity
8
0
100
AcDbCircle
10
-136.49143311192685
20
50.192698564802001
30
0
40
0.50000000000000711
210
0
220
0
230
1
100
AcDbArc
50
180
51
270
0
LWPOLYLINE
5
176
100
AcDbEntity
8
0
100
AcDbPolyline
90
50
70
1
43
0.0
10
-24.572683111926974
20
49.692698564802015
10
-19.746683111927013
20
49.692698564802015
10
-18.572683111927013
20
49.692698564802015
10
-13.746683111927034
20
49.692698564802015
42
0.41421356237309503
10
-13.246683111927027
20
50.192698564802015
10
-13.246683111927009
20
50.692698564802008
10
-12.659683111927027
20
50.692698564802008
10
-6.6096831119270227
20
50.692698564802029
10
-3.1346831119270568
20
50.692698564802029
10
-1.1966831119270616
20
50.692698564802029
10
-1.1966831119270438
20
50.192698564802015
42
0.41421356237309503
10
-0.69668311192703669
20
49.692698564802015
10
5.3033168880729775
20
49.692698564801994
42
0.41421356237310542
10
5.8033168880729313
20
50.192698564802015
10
5.8033168880729136
20
50.692698564802008
10
6.3903168880729311
20
50.692698564802008
42
0.41421356237309503
10
6.8903168880729382
20
51.192698564802015
10
6.8903168880729382
20
64.192698564801987
42
0.41421356237309503
10
6.3903168880729311
20
64.692698564801972
10
5.3033168880729598
20
64.692698564801972
10
-0.69668311192705445
20
64.692698564801987
10
-3.1346831119270568
20
64.692698564801987
10
-6.6096831119270227
20
64.692698564801987
10
-12.659683111927027
20
64.692698564801972
10
-13.746683111927052
20
64.692698564801972
10
-16.134683111927028
20
64.692698564801972
10
-18.572683111927031
20
64.692698564801972
10
-19.74668311192703
20
64.692698564801972
10
-22.184683111927015
20
64.692698564801987
10
-24.572683111926992
20
64.692698564801987
10
-25.659683111927016
20
64.692698564801987
10
-31.709683111926985
20
64.692698564801987
10
-35.184683111926986
20
64.692698564801987
10
-37.622683111926989
20
64.692698564801987
10
-43.622683111927003
20
64.692698564801987
10
-44.709683111926992
20
64.692698564801987
42
0.41421356237309503
10
-45.209683111926999
20
64.192698564801987
10
-45.209683111926999
20
51.192698564802015
42
0.41421356237309503
10
-44.709683111926992
20
50.692698564802029
10
-44.12268311192701
20
50.692698564802029
10
-44.12268311192701
20
50.192698564802015
42
0.41421356237309503
10
-43.622683111927003
20
49.692698564802015
10
-37.622683111926989
20
49.692698564802015
42
0.41421356237309503
10
-37.122683111926982
20
50.192698564802015
10
-37.122683111926982
20
50.692698564802029
10
-35.184683111926986
20
50.692698564802029
10
-31.709683111926985
20
50.692698564802029
10
-25.659683111927016
20
50.692698564802008
10
-25.072683111926999
20
50.692698564802008
10
-25.072683111926981
20
50.192698564802015
42
0.41421356237309503
0
LWPOLYLINE
5
177
100
AcDbEntity
8
0
100
AcDbPolyline
90
8
70
1
43
0.0
10
-71.403433111926944
20
51.192698564802001
42
0.41421356237309503
10
-70.903433111926972
20
50.692698564802008
10
-57.903433111926965
20
50.692698564802029
42
0.41421356237309503
10
-57.403433111926994
20
51.192698564802015
10
-57.403433111926994
20
64.192698564801987
42
0.41421356237309503
10
-57.903433111926965
20
64.692698564801987
10
-70.903433111926972
20
64.692698564801972
42
0.41421356237309503
10
-71.403433111926944
20
64.192698564801972
0
ARC
5
178
100
AcDbEntity
8
0
100
AcDbCircle
10
-112.61543311192693
20
50.192698564801987
30
0
40
0.50000000000000711
210
0
220
0
230
1
100
AcDbArc
50
180
51
270
0
LINE
5
179
100
AcDbEntity
8
0
100
AcDbLine
10
-136.99143311192682
20
50.692698564801987
30
0
11
-136.99143311192685
21
50.192698564802001
31
0
0
LINE
5
180
100
AcDbEntity
8
0
100
AcDbLine
10
-103.73418311192694
20
50.192698564801987
30
0
11
-103.73418311192694
21
64.192698564801987
31
0
0
LINE
5
181
100
AcDbEntity
8
0
100
AcDbLine
10
-134.11018311192689
20
49.692698564801994
30
0
11
-130.49143311192688
21
49.692698564801994
31
0
0
LINE
5
182
100
AcDbEntity
8
0
100
AcDbLine
10
-112.67218311192693
20
64.692698564801972
30
0
11
-115.05343311192689
21
64.692698564801958
31
0
0
LINE
5
183
100
AcDbEntity
8
0
100
AcDbLine
10
-110.23418311192692
20
49.692698564801994
30
0
11
-106.61543311192695
21
49.692698564801994
31
0
0
ARC
5
184
100
AcDbEntity
8
0
100
AcDbCircle
10
-128.05343311192689
20
64.192698564801972
30
0
40
0.49999999999998934
210
0
220
-0
230
1
100
AcDbArc
50
90
51
93.253282999997282
0
LINE
5
185
100
AcDbEntity
8
0
100
AcDbLine
10
-125.67218311192687
20
50.692698564801987
30
0
11
-115.05343311192689
21
50.692698564801987
31
0
0
LINE
5
186
100
AcDbEntity
8
0
100
AcDbLine
10
-115.05343311192689
20
50.692698564801987
30
0
11
-113.11543311192693
21
50.692698564802008
31
0
0
LINE
5
187
100
AcDbEntity
8
0
100
AcDbLine
10
-106.61543311192695
20
64.692698564801972
30
0
11
-110.23418311192692
21
64.692698564801972
31
0
0
LINE
5
188
100
AcDbEntity
8
0
100
AcDbLine
10
-127.61018311192686
20
50.192698564802001
30
0
11
-127.61018311192689
21
50.692698564801987
31
0
0
LINE
5
189
100
AcDbEntity
8
0
100
AcDbLine
10
-127.61018311192689
20
50.692698564801987
30
0
11
-125.67218311192687
21
50.692698564801987
31
0
0
ARC
5
190
100
AcDbEntity
8
0
100
AcDbCircle
10
-104.23418311192691
20
50.192698564801987
30
0
40
0.49999999999998934
210
0
220
0
230
1
100
AcDbArc
50
-90
51
0
0
ARC
5
191
100
AcDbEntity
8
0
100
AcDbCircle
10
-112.67218311192693
20
64.192698564801987
30
0
40
0.49999999999999484
210
0
220
-0
230
1
100
AcDbArc
50
86.746717000002803
51
90
0
LINE
5
192
100
AcDbEntity
8
0
100
AcDbLine
10
-134.11018311192689
20
64.692698564801958
30
0
11
-136.49143311192685
21
64.692698564801958
31
0
0
ARC
5
193
100
AcDbEntity
8
0
100
AcDbCircle
10
-128.11018311192686
20
64.192698564801972
30
0
40
0.49999999999999484
210
0
220
-0
230
1
100
AcDbArc
50
86.746717000002732
51
90
0
LINE
5
194
100
AcDbEntity
8
0
100
AcDbLine
10
-134.10343311192688
20
64.692698564801958
30
0
11
-134.11018311192689
21
64.692698564801958
31
0
0
ARC
5
195
100
AcDbEntity
8
0
100
AcDbCircle
10
-104.23418311192691
20
64.192698564801987
30
0
40
0.49999999999997158
210
-0
220
0
230
1
100
AcDbArc
50
0
51
90
0
LINE
5
196
100
AcDbEntity
8
0
100
AcDbLine
10
-106.61543311192695
20
49.692698564801994
30
0
11
-104.23418311192691
21
49.692698564801994
31
0
0
LINE
5
197
100
AcDbEntity
8
0
100
AcDbLine
10
-147.09668311192686
20
64.692698564801972
30
0
11
-147.10343311192685
21
64.692698564801972
31
0
0
LINE
5
198
100
AcDbEntity
8
0
100
AcDbLine
10
-144.21543311192687
20
50.692698564802008
30
0
11
-136.99143311192682
21
50.692698564801987
31
0
0
ARC
5
199
100
AcDbEntity
8
0
100
AcDbCircle
10
-112.61543311192693
20
64.192698564801987
30
0
40
0.49999999999998934
210
0
220
-0
230
1
100
AcDbArc
50
90
51
93.253283000000437
0
LINE
5
200
100
AcDbEntity
8
0
100
AcDbLine
10
-110.23418311192692
20
64.692698564801972
30
0
11
-112.61543311192693
21
64.692698564801972
31
0
0
LINE
5
201
100
AcDbEntity
8
0
100
AcDbLine
10
-104.23418311192691
20
64.692698564801972
30
0
11
-106.61543311192695
21
64.692698564801972
31
0
0
LINE
5
202
100
AcDbEntity
8
0
100
AcDbLine
10
-115.05343311192689
20
64.692698564801958
30
0
11
-125.67218311192687
21
64.692698564801958
31
0
0
LINE
5
203
100
AcDbEntity
8
0
100
AcDbLine
10
-125.67218311192687
20
64.692698564801958
30
0
11
-128.05343311192689
21
64.692698564801958
31
0
0
LINE
5
204
100
AcDbEntity
8
0
100
AcDbLine
10
-155.53468311192685
20
64.692698564801972
30
0
11
-166.15343311192686
21
64.692698564801987
31
0
0
LINE
5
205
100
AcDbEntity
8
0
100
AcDbLine
10
-153.15343311192686
20
64.692698564801972
30
0
11
-155.53468311192685
21
64.692698564801972
31
0
0
ARC
5
206
100
AcDbEntity
8
0
100
AcDbCircle
10
-153.15343311192686
20
64.192698564801987
30
0
40
0.49999999999999689
210
0
220
-0
230
1
100
AcDbArc
50
86.746716999996309
51
90
0
LINE
5
207
100
AcDbEntity
8
0
100
AcDbLine
10
-166.15343311192686
20
50.692698564802008
30
0
11
-155.53468311192685
21
50.692698564802008
31
0
0
LINE
5
208
100
AcDbEntity
8
0
100
AcDbLine
10
-112.61543311192693
20
49.692698564801994
30
0
11
-110.23418311192692
21
49.692698564801994
31
0
0
ARC
5
209
100
AcDbEntity
8
0
100
AcDbCircle
10
-168.59143311192682
20
50.192698564802001
30
0
40
0.50000000000000711
210
0
220
0
230
1
100
AcDbArc
50
-90
51
0
0
ENDSEC
0
SECTION
2
OBJECTS
0
DICTIONARY
5
C
100
AcDbDictionary
3
ACAD_GROUP
350
D
3
ACAD_MLINESTYLE
350
17
0
DICTIONARY
5
D
100
AcDbDictionary
0
DICTIONARY
5
1A
330
C
100
AcDbDictionary
0
DICTIONARY
5
17
100
AcDbDictionary
0
ENDSEC
0
EOF
